<?xml version="1.0" encoding="UTF-8" standalone="no"?>
<svg
   xmlns:dc="http://purl.org/dc/elements/1.1/"
   xmlns:cc="http://creativecommons.org/ns#"
   xmlns:rdf="http://www.w3.org/1999/02/22-rdf-syntax-ns#"
   xmlns:svg="http://www.w3.org/2000/svg"
   xmlns="http://www.w3.org/2000/svg"
   xmlns:sodipodi="http://sodipodi.sourceforge.net/DTD/sodipodi-0.dtd"
   xmlns:inkscape="http://www.inkscape.org/namespaces/inkscape"
   viewBox="0 0 3000 2210.8796"
   height="2210.8796"
   width="3000"
   xml:space="preserve"
   id="svg2"
   version="1.1"
   inkscape:version="0.91 r13725"
   sodipodi:docname="logo_parque_arauco.svg"><sodipodi:namedview
     pagecolor="#ffffff"
     bordercolor="#666666"
     borderopacity="1"
     objecttolerance="10"
     gridtolerance="10"
     guidetolerance="10"
     inkscape:pageopacity="0"
     inkscape:pageshadow="2"
     inkscape:window-width="1280"
     inkscape:window-height="721"
     id="namedview46"
     showgrid="false"
     inkscape:showpageshadow="false"
     fit-margin-top="20"
     fit-margin-left="20"
     fit-margin-right="20"
     fit-margin-bottom="20"
     inkscape:zoom="0.24815747"
     inkscape:cx="1520"
     inkscape:cy="1120.1079"
     inkscape:window-x="-4"
     inkscape:window-y="-4"
     inkscape:window-maximized="1"
     inkscape:current-layer="svg2" /><metadata
     id="metadata8"><rdf:RDF><cc:Work
         rdf:about=""><dc:format>image/svg+xml</dc:format><dc:type
           rdf:resource="http://purl.org/dc/dcmitype/StillImage" /><dc:title></dc:title></cc:Work></rdf:RDF></metadata><defs
     id="defs6"><clipPath
       id="clipPath18"
       clipPathUnits="userSpaceOnUse"><path
         id="path16"
         d="m 0,793.7 609.45,0 L 609.45,0 0,0 Z"
         inkscape:connector-curvature="0" /></clipPath></defs><g
     id="g3374"
     transform="matrix(8.5878325,0,0,-8.5878325,-1178.6493,4571.5512)"><g
       id="g3376"><g
         id="g3378"
         clip-path="url(#clipPath18)"><g
           id="g3380"
           transform="translate(394.4336,431.2266)"><path
             d="M 0,0 C -17.887,1.687 -36.356,-4.482 -50.268,-18.393 -66.082,-34.207 -72.148,-56.179 -67.98,-76.415 -31.865,-68.007 -4.222,-37.549 0,0"
             style="fill:#53ac4e;fill-opacity:1;fill-rule:nonzero;stroke:none"
             id="path3382"
             inkscape:connector-curvature="0" /></g><g
           id="g3384"
           transform="translate(218.1157,430.7964)"><path
             d="m 0,0 c 4.444,-37.867 32.722,-68.44 69.43,-76.315 4.419,20.079 -1.367,41.842 -17.216,57.69 C 37.904,-4.313 18.548,2.013 0,0"
             style="fill:#53ac4e;fill-opacity:1;fill-rule:nonzero;stroke:none"
             id="path3386"
             inkscape:connector-curvature="0" /></g><g
           id="g3388"
           transform="translate(306.25,530)"><path
             d="m 0,0 c -49.015,0 -88.75,-39.735 -88.75,-88.75 0,-0.218 0.007,-0.435 0.008,-0.653 2.908,0.36 5.863,0.567 8.868,0.567 6.219,0 12.253,-0.964 18.005,-2.713 2.527,31.969 29.251,57.13 61.869,57.13 32.805,0 59.649,-25.45 61.91,-57.68 6.311,2.12 12.706,3.263 18.883,3.263 2.688,0 5.339,-0.161 7.95,-0.45 0.001,0.179 0.007,0.357 0.007,0.536 C 88.75,-39.735 49.016,0 0,0"
             style="fill:#0165ac;fill-opacity:1;fill-rule:nonzero;stroke:none"
             id="path3390"
             inkscape:connector-curvature="0" /></g><g
           id="g3392"
           transform="translate(315.501,369.623)"><path
             d="m 0,0 c 0,28.716 20.514,53.476 44.279,64.864 l 0,10e-4 c -0.508,28.901 -24.08,52.177 -53.103,52.177 -28.942,0 -52.461,-23.145 -53.098,-51.934 21.775,-10.431 38.092,-32.022 42.692,-53.295 0.026,-0.006 0.054,-0.009 0.081,-0.014 0.857,-3.97 1.316,-7.928 1.316,-11.8 0,-5.692 -0.685,-11.222 -1.941,-16.53 3.54,-0.714 7.202,-1.092 10.953,-1.092 3.686,0 7.286,0.369 10.769,1.06 l 0,0 C 0.688,-11.244 0,-5.704 0,0"
             style="fill:#ef4138;fill-opacity:1;fill-rule:nonzero;stroke:none"
             id="path3394"
             inkscape:connector-curvature="0" /></g><g
           id="g3396"
           transform="translate(318.542,306.041)"><path
             d="m 0,0 c 0,0 -5.224,14.611 -5.906,17.115 l -0.136,0 C -6.724,14.611 -11.834,0 -11.834,0 Z m -14.042,-6.957 -3.833,-9.522 -9.026,0 16.276,42.188 9.667,0 16.36,-42.188 -9.482,0 -5.711,15.885 z"
             style="fill:#373535;fill-opacity:1;fill-rule:nonzero;stroke:none"
             id="path3398"
             inkscape:connector-curvature="0" /></g><g
           id="g3400"
           transform="translate(335.9131,310.5293)"><path
             d="m 0,0 c 0,4.43 -0.062,7.321 -0.246,9.905 l 7.177,0 0,-6.716 0.375,1.188 c 1.538,4.43 5.098,6.427 8.812,6.427 0.861,0 1.189,-0.037 1.865,-0.16 L 18.004,2.283 C 17.4,2.825 15.945,2.971 14.899,2.971 10.462,2.971 8.953,0.154 8.338,-2.737 8.215,-3.353 8.025,-4.874 8.025,-5.612 l -0.123,-15.355 -7.902,0 z"
             style="fill:#373535;fill-opacity:1;fill-rule:nonzero;stroke:none"
             id="path3402"
             inkscape:connector-curvature="0" /></g><g
           id="g3404"
           transform="translate(373.7217,304.0176)"><path
             d="m 0,0 c -8.878,0.264 -12.271,-1.643 -12.271,-4.903 0,-2.716 2.056,-4.226 4.95,-4.226 2.599,0 4.756,1.236 6.131,3.361 0.316,0.49 1.062,2.341 1.085,2.966 z m 7.516,-6.455 c 0,-2.83 0.123,-6.275 0.492,-7.937 l -7.292,0 -0.313,4.624 -0.375,-0.375 c -1.968,-2.399 -4.812,-4.811 -10.047,-4.811 -6.09,0 -10.119,4.386 -10.119,9.184 0,8.541 6.583,10.835 20.083,10.584 l -0.042,1.417 c 0,3 -2.468,5.125 -7.083,5.125 -3.076,0 -7.297,-2.102 -9.265,-3.333 l 0,6.952 c 2.052,0.934 5.456,2.34 10.931,2.34 10.029,0 12.784,-4.832 12.784,-13.25 z"
             style="fill:#373535;fill-opacity:1;fill-rule:nonzero;stroke:none"
             id="path3406"
             inkscape:connector-curvature="0" /></g><g
           id="g3408"
           transform="translate(414.1348,299.9619)"><path
             d="m 0,0 c 0,-3.938 0.123,-7.813 0.246,-10.336 l -7.725,0 0,4.343 -0.375,0 c -1.168,-1.846 -4.635,-4.905 -10.049,-4.905 -6.153,0 -10.263,4.03 -10.263,11.033 l 0,20.291 7.984,0 0,-16.181 c 0,-5.499 1.046,-8.916 5.464,-8.916 3.917,0 5.495,3.687 6.049,5.163 0.246,0.554 0.369,1.231 0.369,2.03 l 0,17.904 8.3,0 z"
             style="fill:#373535;fill-opacity:1;fill-rule:nonzero;stroke:none"
             id="path3410"
             inkscape:connector-curvature="0" /></g><g
           id="g3412"
           transform="translate(440.625,290.2188)"><path
             d="m 0,0 c -1.694,-0.815 -5.147,-1.155 -8.787,-1.155 -9.913,0 -14.422,6.837 -14.422,16.436 0,8.973 4.32,15.565 15.74,15.565 2.51,0 4.834,-0.285 6.842,-1.038 L -1.125,23.75 c -1.129,0.502 -2.99,1.114 -5.5,1.114 -5.021,0 -8.25,-4.936 -8.188,-9.956 0,-5.585 3.711,-9.627 8.354,-9.627 2.259,0 4.826,0.373 6.269,1 z"
             style="fill:#373535;fill-opacity:1;fill-rule:nonzero;stroke:none"
             id="path3414"
             inkscape:connector-curvature="0" /></g><g
           id="g3416"
           transform="translate(449.333,305.084)"><path
             d="m 0,0 c 0,-5.597 2.782,-9.795 7.952,-9.795 4.772,0 7.715,3.932 7.715,9.861 0,4.797 -2.228,9.729 -7.715,9.729 C 2.227,9.795 0,4.797 0,0 m 23.599,0.313 c 0,-11.216 -7.958,-16.355 -16.167,-16.355 -8.961,0 -15.855,5.891 -15.855,15.791 0,9.964 6.518,16.293 16.418,16.293 9.337,0 15.604,-6.454 15.604,-15.729"
             style="fill:#373535;fill-opacity:1;fill-rule:nonzero;stroke:none"
             id="path3418"
             inkscape:connector-curvature="0" /></g><g
           id="g3420"
           transform="translate(143.9063,311.3574)"><path
             d="m 0,0 c 0,0 3.142,-0.139 4.813,-0.139 6.047,0 9.748,2.984 9.748,8.739 0,5.69 -3.621,8.105 -9.092,8.105 C 3.28,16.705 0,16.565 0,16.565 Z m -4.331,20.329 9.612,0 c 4.954,0 8.134,-0.91 10.438,-3.186 2.073,-2.024 3.25,-4.769 3.25,-8.563 0,-3.856 -0.729,-5.85 -2.688,-8.062 C 13.574,-2.581 9.607,-3.67 4.712,-3.67 l -4.868,-0.058 0,-17.833 -4.175,0 z"
             style="fill:#373535;fill-opacity:1;fill-rule:nonzero;stroke:none"
             id="path3422"
             inkscape:connector-curvature="0" /></g><g
           id="g3424"
           transform="translate(192.8125,310.2266)"><path
             d="m 0,0 c 0,3.604 -0.058,7.272 -0.23,10.117 l 3.592,0 0,-6.638 0.173,0 c 1.267,4.109 4.338,7.169 7.736,7.169 0.519,0 2.417,-0.229 2.875,-0.468 l 0,-3.707 C 13.628,6.599 12.521,6.712 10.964,6.712 7.394,6.712 4.859,3.804 4.168,-0.369 4.053,-1.128 3.995,-3.857 3.995,-4.742 l 0,-15.86 -3.995,0 z"
             style="fill:#373535;fill-opacity:1;fill-rule:nonzero;stroke:none"
             id="path3426"
             inkscape:connector-curvature="0" /></g><g
           id="g3428"
           transform="translate(228.771,307.8955)"><path
             d="m 0,0 c 0,0.833 -0.372,2.146 -0.563,2.908 -0.889,3.744 -3.81,6.934 -8,6.934 -5.778,0 -9.27,-5.34 -9.27,-12.828 0,-6.727 2.92,-12.481 9.079,-12.481 3.619,0 6.731,2.427 8.001,6.587 0.254,0.901 0.857,2.852 0.857,3.755 z m 0.292,-12.942 -0.459,-0.496 c -1.554,-2.971 -3.666,-5.419 -9.838,-5.419 -6.508,0 -11.808,6.132 -11.808,15.427 0,11.508 4.667,16.503 12.614,16.503 4.321,0 7.592,-2.154 8.975,-5.062 l 0.469,-0.532 -0.016,4.962 4.223,0 C 4.337,9.911 4.222,7.193 4.222,4.032 l 0,-34.713 -3.93,0 z"
             style="fill:#373535;fill-opacity:1;fill-rule:nonzero;stroke:none"
             id="path3430"
             inkscape:connector-curvature="0" /></g><g
           id="g3432"
           transform="translate(262.7236,298.2129)"><path
             d="m 0,0 c 0,-3.225 0.058,-6.007 0.231,-8.409 l -3.781,0 0,5.462 -0.392,-0.672 c -1.267,-2.466 -3.657,-5.486 -9.939,-5.486 -5.53,0 -10.03,2.719 -10.03,13.404 l 0,17.894 4,0 0,-16.881 c 0,-9.712 3.15,-11.15 7.701,-11.15 4.799,0 6.877,3.941 7.799,6.47 0.288,0.759 0.461,1.771 0.461,2.846 l 0,18.715 3.95,0 z"
             style="fill:#373535;fill-opacity:1;fill-rule:nonzero;stroke:none"
             id="path3434"
             inkscape:connector-curvature="0" /></g><g
           id="g3436"
           transform="translate(287.5806,307.292)"><path
             d="m 0,0 c 0.065,4.063 -1.498,10.488 -7.941,10.488 -5.858,0 -8.332,-5.982 -8.788,-10.488 z m -16.581,-3.269 c 0.116,-7.523 4.78,-11.617 9.907,-11.617 3.628,0 6.844,1.271 8.687,2.157 L 1.88,-16.427 c -1.786,-0.885 -4.621,-1.827 -9.056,-1.827 -8.582,0 -13.708,6.261 -13.708,15.492 0,9.231 4.953,16.439 13.074,16.439 9.917,0 11.917,-8.725 11.917,-14.353 0,-1.137 0.115,-1.96 0,-2.593 z"
             style="fill:#373535;fill-opacity:1;fill-rule:nonzero;stroke:none"
             id="path3438"
             inkscape:connector-curvature="0" /></g><g
           id="g3440"
           transform="translate(182.917,305.3037)"><path
             d="m 0,0 c -6.805,0.138 -15.218,-1.025 -15.218,-7.451 0,-3.966 2.64,-5.519 5.759,-5.519 4.536,0 7.497,1.51 8.49,4.314 0.212,0.682 1.011,3.096 1.011,3.643 z m 4.209,-15.436 -3.667,-0.071 -0.042,4.744 -0.651,-0.994 c -1.555,-2.403 -4.912,-4.375 -8.887,-4.375 -6.463,0 -10.338,2.995 -10.338,8.578 0,8.124 7.762,10.739 18.533,10.675 L 0.083,3.112 c 0,2.466 0.751,9.397 -7.156,9.397 -2.65,0 -6.552,-1.045 -8.51,-2.5 l -0.021,3.5 c 2.382,1.206 5.702,2.29 9.216,2.29 8.524,0 10.44,-5.446 10.44,-12.456 l 0,-14.147 z"
             style="fill:#373535;fill-opacity:1;fill-rule:nonzero;stroke:none"
             id="path3442"
             inkscape:connector-curvature="0" /></g><g
           id="g3444"
           transform="translate(472.2852,335.4082)"><path
             d="M 0,0 2.229,0 C 4.474,0 5.24,0.861 5.24,1.907 5.24,2.953 4.474,3.799 2.229,3.799 L 0,3.799 Z m 0,-6.075 -1.254,0 0,10.888 3.795,0 c 2.508,0 4.058,-0.953 4.058,-2.906 0,-1.508 -1.132,-2.661 -3.152,-2.815 l 3.552,-5.167 -1.532,0 -3.378,5.059 -2.089,0 z"
             style="fill:#373535;fill-opacity:1;fill-rule:nonzero;stroke:none"
             id="path3446"
             inkscape:connector-curvature="0" /></g><g
           id="g3448"
           transform="translate(474.416,326.9443)"><path
             d="m 0,0 c -4.326,0 -7.833,3.507 -7.833,7.833 0,4.326 3.507,7.833 7.833,7.833 4.326,0 7.833,-3.507 7.833,-7.833 C 7.833,3.507 4.326,0 0,0 m 0,17.666 c -5.431,0 -9.833,-4.402 -9.833,-9.833 C -9.833,2.402 -5.431,-2 0,-2 c 5.431,0 9.833,4.402 9.833,9.833 0,5.431 -4.402,9.833 -9.833,9.833"
             style="fill:#373535;fill-opacity:1;fill-rule:nonzero;stroke:none"
             id="path3450"
             inkscape:connector-curvature="0" /></g></g></g></g></svg>